<svg id="Layer_1_Image" data-name="Layer 1 Image" xmlns="http://www.w3.org/2000/svg" viewBox="640 170 70 85">
  <defs>
    <style>
      .cls-1 {
        fill: #fff;
      }
      .cls-2 {
        fill: #090909;
      }
      .cls-3 {
        fill: #222;
      }
      .cls-4 {
        fill: #fdfdfd;
      }
      .cls-5 {
        fill: #030303;
      }
      .cls-6 {
        fill: #050505;
      }
      .cls-7 {
        fill: #040404;
      }
      .cls-8 {
        fill: #060606;
      }
      .cls-9 {
        fill: #080808;
      }
      .cls-10 {
        fill: #101010;
      }
      .cls-11 {
        fill: #0a0a0a;
      }
      .cls-12 {
        fill: #0d0d0d;
      }
      .cls-13 {
        fill: #0f0f0f;
      }
      .cls-14 {
        fill: #151515;
      }
      .cls-15 {
        fill: #1d1d1d;
      }
      .cls-16 {
        fill: #e6e6e6;
      }
      .cls-17 {
        fill: #424242;
      }
      .cls-18 {
        fill: #404040;
      }
      .cls-19 {
        fill: #bbb;
      }
      .cls-20 {
        fill: #0b0b0b;
      }
      .cls-21 {
        fill: #020202;
      }
      .cls-22 {
        fill: #0c0c0c;
      }
      .cls-23 {
        fill: #181818;
      }
      .cls-24 {
        fill: #070707;
      }
      .cls-25 {
        fill: #272727;
      }
      .cls-26 {
        fill: #1f1f1f;
      }
      .cls-27 {
        fill: #494949;
      }
      .cls-28 {
        fill: #474747;
      }
      .cls-29 {
        fill: #131313;
      }
      .cls-30 {
        fill: #3f3f3f;
      }
      .cls-31 {
        fill: #161616;
      }
      .cls-32 {
        fill: #454545;
      }
      .cls-33 {
        fill: #b7b7b7;
      }
      .cls-34 {
        fill: #2a2a2a;
      }
      .cls-35 {
        fill: #bdbdbd;
      }
      .cls-36 {
        fill: #b8b8b8;
      }
      .cls-37 {
        fill: #bfbfbf;
      }
      .cls-38 {
        fill: #191919;
      }
      .cls-39 {
        fill: #555;
      }
      .cls-40 {
        fill: #444;
      }
      .cls-41 {
        fill: gray;
      }
      .cls-42 {
        fill: #484848;
      }
      .cls-43 {
        fill: #292929;
      }
      .cls-44 {
        fill: #f3f3f3;
      }
      .cls-45 {
        fill: #ebebeb;
      }
      .cls-46 {
        fill: #ececec;
      }
      .cls-47 {
        fill: #f9f9f9;
      }
      .cls-48 {
        fill: #f0f0f0;
      }
      .cls-49 {
        fill: #a5a5a5;
      }
      .cls-50 {
        fill: #bababa;
      }
      .cls-51 {
        fill: #f4f4f4;
      }

    </style>
  </defs>
  <title>LABELS</title>
  <path class="cls-8 mm" d="M683.71,236.71c1.42,0.75,1.06,2.18,1.53,3.18,0.81,0.1.74-.5,0.81-0.92a3.92,3.92,0,0,1,.3-1.86,1.07,1.07,0,0,1,.52-0.43,0.59,0.59,0,0,1,.68.49,4,4,0,0,1,.31,1.62c0,1.2,0,2.4,0,3.59s0.09,2.19-1.69,1.63a1.26,1.26,0,0,0-1.71,1.13,0.77,0.77,0,0,1-.51.42,0.56,0.56,0,0,1-.65-0.54c-0.49-1.72-.19-3.49-0.24-5.24A4.14,4.14,0,0,1,683.71,236.71Z" transform="translate(-43.28 8.12)"/>
  <path class="cls-13 aa" d="M693.62,245.19c-1.07-.61-0.86-1.54-1.6-2.14-0.59.45-.16,1.78-1.43,1.84a5.19,5.19,0,0,1-.1-2.9c0.21-1.32.48-2.64,0.72-4a0.89,0.89,0,0,1,.67-0.88,0.84,0.84,0,0,1,.9.86,32.92,32.92,0,0,1,.83,5.84C693.64,244.23,693.62,244.59,693.62,245.19Z" transform="translate(-43.28 8.12)"/>
  <path class="cls-10 dd" d="M696.63,240.94c0-1,0-1.92,0-2.88a1.24,1.24,0,0,1,1.2-1.48c0.85,0,1.79.09,1.93,1a23.56,23.56,0,0,1,.48,6.88,1.81,1.81,0,0,1-3.57-.19c-0.11-1.11,0-2.24,0-3.36h0Z" transform="translate(-43.28 8.12)"/>
  <path class="cls-46 dd+" d="M698.34,243.63c-0.93-2.83-.93-3.1-0.07-5.73A5.54,5.54,0,0,1,698.34,243.63Z" transform="translate(-43.28 8.12)"/>
  <path class="cls-14 ee" d="M705.7,236.29a2.43,2.43,0,0,1,.49.35,0.48,0.48,0,0,1-.19.78c-1.13.73-1.07,1.63-.45,2.66a1.18,1.18,0,0,1,0,1.36c-1,1.28-.65,2.33.45,3.3a0.65,0.65,0,0,1,.21.84,1,1,0,0,1-1.07.29,1.32,1.32,0,0,1-1.17-1.32,33,33,0,0,1,0-6.89A1.47,1.47,0,0,1,705.7,236.29Z" transform="translate(-43.28 8.12)"/>
  <path class="cls-15 ii" d="M717.87,245.2a11.15,11.15,0,0,1,.05-8.22A12.24,12.24,0,0,1,717.87,245.2Z" transform="translate(-43.28 8.12)"/>
  <path class="cls-9 nn" d="M725.19,245.77a1.69,1.69,0,0,1-1.2-1.43c-0.05-.26,0-0.83-0.46-0.6-1.64.89-1.31-.76-1.38-1.23a15.75,15.75,0,0,1,.29-5.17c0.08-.44.45-0.9,0.74-0.6,0.68,0.72,1.88-.85,2.19.52A15.92,15.92,0,0,1,725.19,245.77Z" transform="translate(-43.28 8.12)"/>
  <path class="cls-15 uu" d="M738.41,245a1.17,1.17,0,0,1-1.4,1.15,1.33,1.33,0,0,1-1-1.37c0-.46,0-0.92,0-1.38a0.64,0.64,0,0,1,.45-0.26,0.7,0.7,0,0,1,.44.27c1.07,0.47.72-.58,1-0.94C739.22,243.07,738.37,244.12,738.41,245Z" transform="translate(-43.28 8.12)"/>
  <path class="cls-17 uu+" d="M738.41,245c-0.23-.83.32-1.82-0.52-2.53v-2.86c0.56-.33.67,0.18,0.9,0.48C738.66,241.72,739.21,243.4,738.41,245Z" transform="translate(-43.28 8.12)"/>
  <path class="cls-18 uu++" d="M736.88,243.41H736.5c-0.59-.32-0.11-1-0.55-1.42a7.93,7.93,0,0,1,.3-3.2C737.25,240.46,736.74,242,736.88,243.41Z" transform="translate(-43.28 8.12)"/>
  <path class="cls-19 uu+++" d="M738.77,240.08a1.61,1.61,0,0,0-.9-0.48,3.32,3.32,0,0,1,0-.69c0.06-.29.15-0.66,0.56-0.51a0.73,0.73,0,0,1,.32.53A8.83,8.83,0,0,1,738.77,240.08Z" transform="translate(-43.28 8.12)"/>
  <path class="cls-12 ss" d="M743.72,237.8a7.24,7.24,0,0,0,.93,3.4,7.83,7.83,0,0,1,.46,3.52,1.32,1.32,0,0,1-1.23,1.26,1,1,0,0,1-1.27-.82c0-.45-0.46-1.59.83-0.76,0.55,0.36.73-.12,0.65-0.53a20.81,20.81,0,0,0-.67-2.28,10.07,10.07,0,0,1-.88-3.94,1.22,1.22,0,0,1,1.78-1.15,1.14,1.14,0,0,1,.91,1.42C744.91,238.66,744.31,237.85,743.72,237.8Z" transform="translate(-43.28 8.12)"/>
  <path class="cls-12 aa2" d="M750.08,236.74a1.46,1.46,0,0,1,1.15,1.33c0.39,2,.72,4,1,6.07,0.08,0.52.24,1.3-.43,1.4s-0.88-.72-1-1.32,0.24-1.41-.25-2c-0.89.26-.62,1-0.65,1.59a1.9,1.9,0,0,1-.64,1.7c-0.43.29-.93,0.15-0.84-0.3C749,242.37,748.93,239.43,750.08,236.74Z" transform="translate(-43.28 8.12)"/>
</svg>
