<svg id="Layer_1_Image" data-name="Layer 1 Image" xmlns="http://www.w3.org/2000/svg" viewBox="617 169 119 18">
  <defs>
    <style>
      .cls-1 {
        fill: #fff;
      }
      .cls-2 {
        fill: #090909;
      }
      .cls-3 {
        fill: #222;
      }
      .cls-4 {
        fill: #fdfdfd;
      }
      .cls-5 {
        fill: #030303;
      }
      .cls-6 {
        fill: #050505;
      }
      .cls-7 {
        fill: #040404;
      }
      .cls-8 {
        fill: #060606;
      }
      .cls-9 {
        fill: #080808;
      }
      .cls-10 {
        fill: #101010;
      }
      .cls-11 {
        fill: #0a0a0a;
      }
      .cls-12 {
        fill: #0d0d0d;
      }
      .cls-13 {
        fill: #0f0f0f;
      }
      .cls-14 {
        fill: #151515;
      }
      .cls-15 {
        fill: #1d1d1d;
      }
      .cls-16 {
        fill: #e6e6e6;
      }
      .cls-17 {
        fill: #424242;
      }
      .cls-18 {
        fill: #404040;
      }
      .cls-19 {
        fill: #bbb;
      }
      .cls-20 {
        fill: #0b0b0b;
      }
      .cls-21 {
        fill: #020202;
      }
      .cls-22 {
        fill: #0c0c0c;
      }
      .cls-23 {
        fill: #181818;
      }
      .cls-24 {
        fill: #070707;
      }
      .cls-25 {
        fill: #272727;
      }
      .cls-26 {
        fill: #1f1f1f;
      }
      .cls-27 {
        fill: #494949;
      }
      .cls-28 {
        fill: #474747;
      }
      .cls-29 {
        fill: #131313;
      }
      .cls-30 {
        fill: #3f3f3f;
      }
      .cls-31 {
        fill: #161616;
      }
      .cls-32 {
        fill: #454545;
      }
      .cls-33 {
        fill: #b7b7b7;
      }
      .cls-34 {
        fill: #2a2a2a;
      }
      .cls-35 {
        fill: #bdbdbd;
      }
      .cls-36 {
        fill: #b8b8b8;
      }
      .cls-37 {
        fill: #bfbfbf;
      }
      .cls-38 {
        fill: #191919;
      }
      .cls-39 {
        fill: #555;
      }
      .cls-40 {
        fill: #444;
      }
      .cls-41 {
        fill: gray;
      }
      .cls-42 {
        fill: #484848;
      }
      .cls-43 {
        fill: #292929;
      }
      .cls-44 {
        fill: #f3f3f3;
      }
      .cls-45 {
        fill: #ebebeb;
      }
      .cls-46 {
        fill: #ececec;
      }
      .cls-47 {
        fill: #f9f9f9;
      }
      .cls-48 {
        fill: #f0f0f0;
      }
      .cls-49 {
        fill: #a5a5a5;
      }
      .cls-50 {
        fill: #bababa;
      }
      .cls-51 {
        fill: #f4f4f4;
      }

    </style>
  </defs>
  <title>LABELS</title>
  <path class="cls-7 v" d="M664.23,169.67c0.87-1.68.74-3.48,1-5.18a9.78,9.78,0,0,1,.5-2.08c0.22-.54.45-1.16,1.14-0.9a1,1,0,0,1,.52,1.41,10,10,0,0,0-.22,1.42q-0.89,5.65-1.79,11.3a5.69,5.69,0,0,1-.17.94,0.82,0.82,0,0,1-1.47.32,2.63,2.63,0,0,1-.71-1.48c-0.82-4.21-1.44-8.46-1.94-12.71a1.65,1.65,0,0,1,.38-1.37C664.13,163.6,662.72,167.08,664.23,169.67Z" transform="translate(-43.28 8.12)"/>
  <path class="cls-2 i1" d="M674.91,161.69a1.61,1.61,0,0,1,.94,1.73c0.16,4.58.46,9.17-.39,13.93-1-1.21-1.07-1.36-1.07-5q0-2.75,0-5.51A16.75,16.75,0,0,1,674.91,161.69Z" transform="translate(-43.28 8.12)"/>
  <path class="cls-5 r" d="M687.69,177.67c-1.56-2.14.23-4.82-1.91-6.54-0.63,1.05-.1,2.16-0.51,3.1s0.18,2.13-.92,2.8c-0.83-.43-0.71-1.24-0.74-1.91-0.22-4.14-.38-8.27-0.57-12.41,0-1,.3-1.55,1.37-1.46,0.72,0.06,1.44.08,2.14,0.19a1.63,1.63,0,0,1,1.54,1.55c0,0.15.16,0.29,0.17,0.44a62.3,62.3,0,0,1-.13,12.89A9.23,9.23,0,0,1,687.69,177.67Z" transform="translate(-43.28 8.12)"/>
  <path class="cls-45 r+" d="M685.79,168.51a9.36,9.36,0,0,1-.1-4.94C686.84,164.61,686.94,166.39,685.79,168.51Z" transform="translate(-43.28 8.12)"/>
  <path class="cls-6 g" d="M699.92,169a3.17,3.17,0,0,1,.58,2c0,1.43,0,2.87,0,4.3,0,1.91-.36,2.24-2.17,2.42-1.62.16-2.43-.33-2.69-1.95a37.51,37.51,0,0,1,.06-12.55,2.29,2.29,0,0,1,2.64-1.84,2.15,2.15,0,0,1,2.13,2.14c0.09,1.17.27,2.41-.82,3.34-1.08-.6-0.65-1.66-0.76-2.56-0.06-.52.09-1.23-0.86-1a24.26,24.26,0,0,0-.11,6.85c0.09,1.73.7,3.42,0.35,5.19a11,11,0,0,0-.3-4.64C697.64,168.92,698.15,168.34,699.92,169Z" transform="translate(-43.28 8.12)"/>
  <path class="cls-16 g+" d="M699.92,169c-1.81.09-1.82,0.09-1.39,1.69a6.49,6.49,0,0,1-.34,5c-0.88-3.19-.62-6.24-0.59-9.25,0-1-.53-2.2.41-3.13a15.8,15.8,0,0,1,0,2.35C697.78,167.35,698.12,168.57,699.92,169Z" transform="translate(-43.28 8.12)"/>
  <path class="cls-9 i2" d="M709.34,161.79a40.72,40.72,0,0,1,0,15.37c-1.18-1.47-.79-3.2-0.84-4.83-0.06-1.83,0-3.67,0-5.5S708.22,163.35,709.34,161.79Z" transform="translate(-43.28 8.12)"/>
  <path class="cls-5 n" d="M719.3,171.88c-0.89,1.68.33,3.76-1.14,5.48a3.38,3.38,0,0,1-.86-2.6c0-3.73,0-7.47,0-11.21,0-.16,0-0.32,0-0.48a1.14,1.14,0,0,1,.83-1.26,1,1,0,0,1,1,.85,8.77,8.77,0,0,1,.93,2.69,1.51,1.51,0,0,0,.77,1.34c0.33-1.75-.25-3.5.81-4.89a1.17,1.17,0,0,1,.76,1.35c0.33,4.22.08,8.44,0.15,12.65a3.91,3.91,0,0,1,0,.48,1,1,0,0,1-.62.94,0.84,0.84,0,0,1-.91-0.58,7.73,7.73,0,0,1-.92-2.68C720,173.24,720.18,172.35,719.3,171.88Z" transform="translate(-43.28 8.12)"/>
  <path class="cls-6 s" d="M744.22,175.74a1.17,1.17,0,0,0,.59-1.4,15,15,0,0,0-1.33-4.55,16.23,16.23,0,0,1-1.55-4.74,7,7,0,0,1-.14-1.41c0.09-1.46.75-2.26,1.88-2.38a3.35,3.35,0,0,1,3.27,1.94,1.4,1.4,0,0,1-.6,1.87c-0.92.4-1.28-.23-1.36-1.07a0.73,0.73,0,0,0-.73-0.77,0.78,0.78,0,0,0-.67,1,12.81,12.81,0,0,0,1.82,5.38,12.67,12.67,0,0,1,1.79,4.65,2.86,2.86,0,0,1-3.09,3.46,2.28,2.28,0,0,1-2.32-2.7c0-.75.21-1.6,1-1.68s0.83,0.78.92,1.4A1,1,0,0,0,744.22,175.74Z" transform="translate(-43.28 8.12)"/>
  <path class="cls-5 o" d="M758.57,169.34a23.73,23.73,0,0,1-.48,6.57,2.72,2.72,0,0,1-2.74,2.1c-1.32-.07-1.91-0.68-2.23-2.24a34.52,34.52,0,0,1-.32-12.28,2.07,2.07,0,0,1,2.33-2.1c1.89-.1,2.52.35,2.94,2A21.49,21.49,0,0,1,758.57,169.34Z" transform="translate(-43.28 8.12)"/>
  <path class="cls-44 o+" d="M755.62,175.06c-0.75-1.91-.55-3.87-0.58-5.82,0-1.74,0-3.49,0-5.23a0.61,0.61,0,0,1,.41-0.73,0.62,0.62,0,0,1,.68.75A56.44,56.44,0,0,1,755.62,175.06Z" transform="translate(-43.28 8.12)"/>
  <path class="cls-11 i3" d="M765.81,161.41a38.63,38.63,0,0,1-.1,15.53c-1.31-4.34-1-8.8-1.07-13.24A2.1,2.1,0,0,1,765.81,161.41Z" transform="translate(-43.28 8.12)"/>
  <path class="cls-8 l" d="M773.44,169.1c0-1.75,0-3.51,0-5.26a2.46,2.46,0,0,1,.09-0.95c0.2-.46.19-1.26,1-1.11a1.2,1.2,0,0,1,.86,1.28c0.1,1.66.26,3.32,0.31,5,0.06,1.84,0,3.67,0,5.51,0,1.25.17,2.27,1.75,2.23a0.89,0.89,0,0,1,1.07.71,1.21,1.21,0,0,1-1,1.15c-2.35.89-3.29,0.35-3.81-2.15A23.22,23.22,0,0,1,773.44,169.1Z" transform="translate(-43.28 8.12)"/>
</svg>
